<svg data-v-423bf9ae="" xmlns="http://www.w3.org/2000/svg" viewBox="0 0 363.9940223094169 60" class="font"><!----><!----><!----><g data-v-423bf9ae="" id="d86b24bd-8527-43cd-baea-4056871bc433" fill="black" transform="matrix(4.487658976332971,0,0,4.487658976332971,-3.4106248023473142,-10.052355434527769)"><path d="M3.95 4.62L3.95 4.62Q4.86 4.62 5.58 4.91L5.58 4.91L5.58 4.91Q6.30 5.21 6.72 5.73L6.72 5.73L6.72 5.73Q6.90 5.95 6.90 6.17L6.90 6.17L6.90 6.17Q6.90 6.41 6.66 6.61L6.66 6.61L6.66 6.61Q6.51 6.72 6.27 6.72L6.27 6.72L6.27 6.72Q5.91 6.72 5.61 6.45L5.61 6.45L5.61 6.45Q5.26 6.13 4.87 6.00L4.87 6.00L4.87 6.00Q4.48 5.87 3.92 5.87L3.92 5.87L3.92 5.87Q3.28 5.87 2.86 6.08L2.86 6.08L2.86 6.08Q2.45 6.30 2.45 6.69L2.45 6.69L2.45 6.69Q2.45 6.97 2.59 7.16L2.59 7.16L2.59 7.16Q2.73 7.35 3.12 7.51L3.12 7.51L3.12 7.51Q3.51 7.67 4.26 7.83L4.26 7.83L4.26 7.83Q5.78 8.13 6.42 8.68L6.42 8.68L6.42 8.68Q7.06 9.23 7.06 10.09L7.06 10.09L7.06 10.09Q7.06 10.74 6.71 11.26L6.71 11.26L6.71 11.26Q6.36 11.79 5.68 12.09L5.68 12.09L5.68 12.09Q5.00 12.39 4.05 12.39L4.05 12.39L4.05 12.39Q3.09 12.39 2.25 12.10L2.25 12.10L2.25 12.10Q1.41 11.80 0.94 11.33L0.94 11.33L0.94 11.33Q0.76 11.14 0.76 10.89L0.76 10.89L0.76 10.89Q0.76 10.56 1.04 10.35L1.04 10.35L1.04 10.35Q1.30 10.15 1.53 10.15L1.53 10.15L1.53 10.15Q1.81 10.15 2.06 10.40L2.06 10.40L2.06 10.40Q2.32 10.70 2.86 10.91L2.86 10.91L2.86 10.91Q3.39 11.13 3.99 11.13L3.99 11.13L3.99 11.13Q4.79 11.13 5.23 10.86L5.23 10.86L5.23 10.86Q5.67 10.60 5.67 10.15L5.67 10.15L5.67 10.15Q5.67 9.72 5.24 9.43L5.24 9.43L5.24 9.43Q4.80 9.14 3.77 8.95L3.77 8.95L3.77 8.95Q1.08 8.43 1.08 6.73L1.08 6.73L1.08 6.73Q1.08 6.05 1.48 5.57L1.48 5.57L1.48 5.57Q1.89 5.10 2.55 4.86L2.55 4.86L2.55 4.86Q3.21 4.62 3.95 4.62L3.95 4.62ZM12.71 4.62L12.71 4.62Q13.79 4.62 14.68 5.13L14.68 5.13L14.68 5.13Q15.57 5.64 16.07 6.53L16.07 6.53L16.07 6.53Q16.58 7.42 16.58 8.51L16.58 8.51L16.58 8.51Q16.58 9.60 16.11 10.49L16.11 10.49L16.11 10.49Q15.64 11.38 14.82 11.89L14.82 11.89L14.82 11.89Q14 12.39 12.99 12.39L12.99 12.39L12.99 12.39Q12.18 12.39 11.48 12.05L11.48 12.05L11.48 12.05Q10.78 11.72 10.29 11.12L10.29 11.12L10.29 14.90L10.29 14.90Q10.29 15.22 10.09 15.41L10.09 15.41L10.09 15.41Q9.90 15.61 9.58 15.61L9.58 15.61L9.58 15.61Q9.27 15.61 9.07 15.41L9.07 15.41L9.07 15.41Q8.86 15.22 8.86 14.90L8.86 14.90L8.86 8.51L8.86 8.51Q8.86 7.42 9.37 6.53L9.37 6.53L9.37 6.53Q9.88 5.64 10.76 5.13L10.76 5.13L10.76 5.13Q11.63 4.62 12.71 4.62L12.71 4.62ZM12.71 11.13L12.71 11.13Q13.41 11.13 13.98 10.79L13.98 10.79L13.98 10.79Q14.55 10.44 14.88 9.85L14.88 9.85L14.88 9.85Q15.20 9.25 15.20 8.51L15.20 8.51L15.20 8.51Q15.20 7.77 14.88 7.17L14.88 7.17L14.88 7.17Q14.55 6.57 13.98 6.22L13.98 6.22L13.98 6.22Q13.41 5.88 12.71 5.88L12.71 5.88L12.71 5.88Q12.01 5.88 11.45 6.22L11.45 6.22L11.45 6.22Q10.88 6.57 10.56 7.17L10.56 7.17L10.56 7.17Q10.23 7.77 10.23 8.51L10.23 8.51L10.23 8.51Q10.23 9.25 10.56 9.85L10.56 9.85L10.56 9.85Q10.88 10.44 11.45 10.79L11.45 10.79L11.45 10.79Q12.01 11.13 12.71 11.13L12.71 11.13ZM22.46 4.59L22.46 4.59Q23.20 4.59 23.62 4.82L23.62 4.82L23.62 4.82Q24.04 5.04 24.04 5.38L24.04 5.38L24.04 5.38Q24.04 5.47 24.02 5.52L24.02 5.52L24.02 5.52Q23.90 5.96 23.46 5.96L23.46 5.96L23.46 5.96Q23.39 5.96 23.25 5.94L23.25 5.94L23.25 5.94Q22.69 5.84 22.34 5.84L22.34 5.84L22.34 5.84Q21.34 5.84 20.72 6.30L20.72 6.30L20.72 6.30Q20.10 6.76 20.10 7.55L20.10 7.55L20.10 11.63L20.10 11.63Q20.10 11.97 19.93 12.15L19.93 12.15L19.93 12.15Q19.75 12.33 19.40 12.33L19.40 12.33L19.40 12.33Q19.07 12.33 18.89 12.16L18.89 12.16L18.89 12.16Q18.70 11.98 18.70 11.63L18.70 11.63L18.70 5.38L18.70 5.38Q18.70 5.04 18.89 4.86L18.89 4.86L18.89 4.86Q19.07 4.68 19.40 4.68L19.40 4.68L19.40 4.68Q20.10 4.68 20.10 5.38L20.10 5.38L20.10 5.64L20.10 5.64Q20.52 5.15 21.14 4.87L21.14 4.87L21.14 4.87Q21.76 4.59 22.46 4.59L22.46 4.59ZM31.82 4.66L31.82 4.66Q32.14 4.66 32.34 4.86L32.34 4.86L32.34 4.86Q32.54 5.05 32.54 5.38L32.54 5.38L32.54 11.62L32.54 11.62Q32.54 11.93 32.34 12.13L32.34 12.13L32.34 12.13Q32.14 12.33 31.82 12.33L31.82 12.33L31.82 12.33Q31.51 12.33 31.31 12.13L31.31 12.13L31.31 12.13Q31.11 11.93 31.11 11.62L31.11 11.62L31.11 11.47L31.11 11.47Q30.66 11.91 30.04 12.16L30.04 12.16L30.04 12.16Q29.43 12.40 28.73 12.40L28.73 12.40L28.73 12.40Q27.76 12.40 26.99 11.98L26.99 11.98L26.99 11.98Q26.22 11.56 25.79 10.76L25.79 10.76L25.79 10.76Q25.35 9.95 25.35 8.82L25.35 8.82L25.35 5.38L25.35 5.38Q25.35 5.07 25.56 4.86L25.56 4.86L25.56 4.86Q25.76 4.66 26.07 4.66L26.07 4.66L26.07 4.66Q26.38 4.66 26.58 4.86L26.58 4.86L26.58 4.86Q26.78 5.07 26.78 5.38L26.78 5.38L26.78 8.82L26.78 8.82Q26.78 9.95 27.39 10.54L27.39 10.54L27.39 10.54Q28.00 11.12 29.01 11.12L29.01 11.12L29.01 11.12Q29.60 11.12 30.08 10.88L30.08 10.88L30.08 10.88Q30.56 10.64 30.84 10.23L30.84 10.23L30.84 10.23Q31.11 9.83 31.11 9.32L31.11 9.32L31.11 5.38L31.11 5.38Q31.11 5.05 31.31 4.86L31.31 4.86L31.31 4.86Q31.51 4.66 31.82 4.66L31.82 4.66ZM38.46 4.62L38.46 4.62Q40.11 4.62 41.20 5.88L41.20 5.88L41.20 5.88Q41.34 6.03 41.34 6.24L41.34 6.24L41.34 6.24Q41.34 6.55 41.03 6.76L41.03 6.76L41.03 6.76Q40.89 6.86 40.71 6.86L40.71 6.86L40.71 6.86Q40.39 6.86 40.17 6.61L40.17 6.61L40.17 6.61Q39.82 6.23 39.40 6.05L39.40 6.05L39.40 6.05Q38.99 5.88 38.46 5.88L38.46 5.88L38.46 5.88Q37.38 5.88 36.71 6.60L36.71 6.60L36.71 6.60Q36.04 7.32 36.04 8.51L36.04 8.51L36.04 8.51Q36.04 9.27 36.35 9.86L36.35 9.86L36.35 9.86Q36.67 10.46 37.23 10.79L37.23 10.79L37.23 10.79Q37.80 11.13 38.53 11.13L38.53 11.13L38.53 11.13Q39.48 11.13 40.07 10.64L40.07 10.64L40.07 10.64Q40.33 10.44 40.59 10.44L40.59 10.44L40.59 10.44Q40.78 10.44 40.95 10.57L40.95 10.57L40.95 10.57Q41.22 10.79 41.22 11.07L41.22 11.07L41.22 11.07Q41.22 11.28 41.05 11.45L41.05 11.45L41.05 11.45Q40.04 12.39 38.53 12.39L38.53 12.39L38.53 12.39Q37.42 12.39 36.54 11.89L36.54 11.89L36.54 11.89Q35.66 11.38 35.16 10.49L35.16 10.49L35.16 10.49Q34.66 9.60 34.66 8.51L34.66 8.51L34.66 8.51Q34.66 7.39 35.15 6.50L35.15 6.50L35.15 6.50Q35.63 5.61 36.50 5.12L36.50 5.12L36.50 5.12Q37.37 4.62 38.46 4.62L38.46 4.62ZM50.34 8.39L50.34 8.39Q50.34 8.65 50.16 8.83L50.16 8.83L50.16 8.83Q49.98 9.00 49.70 9.00L49.70 9.00L44.38 9.00L44.38 9.00Q44.53 9.98 45.27 10.58L45.27 10.58L45.27 10.58Q46.00 11.19 47.07 11.19L47.07 11.19L47.07 11.19Q47.49 11.19 47.94 11.03L47.94 11.03L47.94 11.03Q48.40 10.88 48.69 10.65L48.69 10.65L48.69 10.65Q48.89 10.50 49.15 10.50L49.15 10.50L49.15 10.50Q49.42 10.50 49.57 10.64L49.57 10.64L49.57 10.64Q49.83 10.85 49.83 11.12L49.83 11.12L49.83 11.12Q49.83 11.37 49.60 11.54L49.60 11.54L49.60 11.54Q49.13 11.91 48.42 12.15L48.42 12.15L48.42 12.15Q47.71 12.39 47.07 12.39L47.07 12.39L47.07 12.39Q45.92 12.39 45.01 11.89L45.01 11.89L45.01 11.89Q44.10 11.40 43.59 10.51L43.59 10.51L43.59 10.51Q43.08 9.63 43.08 8.51L43.08 8.51L43.08 8.51Q43.08 7.39 43.56 6.50L43.56 6.50L43.56 6.50Q44.04 5.61 44.91 5.12L44.91 5.12L44.91 5.12Q45.77 4.62 46.86 4.62L46.86 4.62L46.86 4.62Q47.94 4.62 48.72 5.10L48.72 5.10L48.72 5.10Q49.50 5.57 49.92 6.43L49.92 6.43L49.92 6.43Q50.34 7.28 50.34 8.39L50.34 8.39ZM46.86 5.82L46.86 5.82Q45.84 5.82 45.20 6.38L45.20 6.38L45.20 6.38Q44.56 6.94 44.39 7.88L44.39 7.88L49.06 7.88L49.06 7.88Q48.93 6.94 48.36 6.38L48.36 6.38L48.36 6.38Q47.78 5.82 46.86 5.82L46.86 5.82ZM55.97 4.61L55.97 4.61Q56.94 4.61 57.71 5.03L57.71 5.03L57.71 5.03Q58.48 5.45 58.91 6.25L58.91 6.25L58.91 6.25Q59.35 7.06 59.35 8.19L59.35 8.19L59.35 11.63L59.35 11.63Q59.35 11.94 59.14 12.14L59.14 12.14L59.14 12.14Q58.94 12.35 58.63 12.35L58.63 12.35L58.63 12.35Q58.32 12.35 58.12 12.14L58.12 12.14L58.12 12.14Q57.92 11.94 57.92 11.63L57.92 11.63L57.92 8.19L57.92 8.19Q57.92 7.06 57.31 6.47L57.31 6.47L57.31 6.47Q56.70 5.89 55.69 5.89L55.69 5.89L55.69 5.89Q55.10 5.89 54.62 6.13L54.62 6.13L54.62 6.13Q54.14 6.37 53.87 6.78L53.87 6.78L53.87 6.78Q53.59 7.18 53.59 7.69L53.59 7.69L53.59 11.63L53.59 11.63Q53.59 11.94 53.40 12.14L53.40 12.14L53.40 12.14Q53.20 12.35 52.88 12.35L52.88 12.35L52.88 12.35Q52.57 12.35 52.37 12.14L52.37 12.14L52.37 12.14Q52.16 11.94 52.16 11.63L52.16 11.63L52.16 5.39L52.16 5.39Q52.16 5.07 52.37 4.87L52.37 4.87L52.37 4.87Q52.57 4.68 52.88 4.68L52.88 4.68L52.88 4.68Q53.20 4.68 53.40 4.87L53.40 4.87L53.40 4.87Q53.59 5.07 53.59 5.39L53.59 5.39L53.59 5.54L53.59 5.54Q54.04 5.10 54.66 4.85L54.66 4.85L54.66 4.85Q55.27 4.61 55.97 4.61L55.97 4.61ZM68.59 8.39L68.59 8.39Q68.59 8.65 68.40 8.83L68.40 8.83L68.40 8.83Q68.22 9.00 67.94 9.00L67.94 9.00L62.62 9.00L62.62 9.00Q62.78 9.98 63.51 10.58L63.51 10.58L63.51 10.58Q64.25 11.19 65.31 11.19L65.31 11.19L65.31 11.19Q65.73 11.19 66.19 11.03L66.19 11.03L66.19 11.03Q66.64 10.88 66.93 10.65L66.93 10.65L66.93 10.65Q67.13 10.50 67.40 10.50L67.40 10.50L67.40 10.50Q67.66 10.50 67.82 10.64L67.82 10.64L67.82 10.64Q68.07 10.85 68.07 11.12L68.07 11.12L68.07 11.12Q68.07 11.37 67.84 11.54L67.84 11.54L67.84 11.54Q67.37 11.91 66.66 12.15L66.66 12.15L66.66 12.15Q65.95 12.39 65.31 12.39L65.31 12.39L65.31 12.39Q64.16 12.39 63.25 11.89L63.25 11.89L63.25 11.89Q62.34 11.40 61.83 10.51L61.83 10.51L61.83 10.51Q61.32 9.63 61.32 8.51L61.32 8.51L61.32 8.51Q61.32 7.39 61.80 6.50L61.80 6.50L61.80 6.50Q62.29 5.61 63.15 5.12L63.15 5.12L63.15 5.12Q64.01 4.62 65.10 4.62L65.10 4.62L65.10 4.62Q66.18 4.62 66.96 5.10L66.96 5.10L66.96 5.10Q67.75 5.57 68.17 6.43L68.17 6.43L68.17 6.43Q68.59 7.28 68.59 8.39L68.59 8.39ZM65.10 5.82L65.10 5.82Q64.08 5.82 63.44 6.38L63.44 6.38L63.44 6.38Q62.80 6.94 62.64 7.88L62.64 7.88L67.30 7.88L67.30 7.88Q67.17 6.94 66.60 6.38L66.60 6.38L66.60 6.38Q66.02 5.82 65.10 5.82L65.10 5.82ZM73.09 4.62L73.09 4.62Q74.00 4.62 74.73 4.91L74.73 4.91L74.73 4.91Q75.45 5.21 75.87 5.73L75.87 5.73L75.87 5.73Q76.05 5.95 76.05 6.17L76.05 6.17L76.05 6.17Q76.05 6.41 75.81 6.61L75.81 6.61L75.81 6.61Q75.66 6.72 75.42 6.72L75.42 6.72L75.42 6.72Q75.05 6.72 74.76 6.45L74.76 6.45L74.76 6.45Q74.41 6.13 74.02 6.00L74.02 6.00L74.02 6.00Q73.63 5.87 73.07 5.87L73.07 5.87L73.07 5.87Q72.42 5.87 72.01 6.08L72.01 6.08L72.01 6.08Q71.60 6.30 71.60 6.69L71.60 6.69L71.60 6.69Q71.60 6.97 71.74 7.16L71.74 7.16L71.74 7.16Q71.88 7.35 72.27 7.51L72.27 7.51L72.27 7.51Q72.66 7.67 73.40 7.83L73.40 7.83L73.40 7.83Q74.93 8.13 75.57 8.68L75.57 8.68L75.57 8.68Q76.20 9.23 76.20 10.09L76.20 10.09L76.20 10.09Q76.20 10.74 75.85 11.26L75.85 11.26L75.85 11.26Q75.50 11.79 74.82 12.09L74.82 12.09L74.82 12.09Q74.14 12.39 73.19 12.39L73.19 12.39L73.19 12.39Q72.24 12.39 71.40 12.10L71.40 12.10L71.40 12.10Q70.56 11.80 70.08 11.33L70.08 11.33L70.08 11.33Q69.90 11.14 69.90 10.89L69.90 10.89L69.90 10.89Q69.90 10.56 70.18 10.35L70.18 10.35L70.18 10.35Q70.45 10.15 70.67 10.15L70.67 10.15L70.67 10.15Q70.95 10.15 71.20 10.40L71.20 10.40L71.20 10.40Q71.47 10.70 72.00 10.91L72.00 10.91L72.00 10.91Q72.53 11.13 73.14 11.13L73.14 11.13L73.14 11.13Q73.93 11.13 74.38 10.86L74.38 10.86L74.38 10.86Q74.82 10.60 74.82 10.15L74.82 10.15L74.82 10.15Q74.82 9.72 74.38 9.43L74.38 9.43L74.38 9.43Q73.95 9.14 72.91 8.95L72.91 8.95L72.91 8.95Q70.22 8.43 70.22 6.73L70.22 6.73L70.22 6.73Q70.22 6.05 70.63 5.57L70.63 5.57L70.63 5.57Q71.04 5.10 71.69 4.86L71.69 4.86L71.69 4.86Q72.35 4.62 73.09 4.62L73.09 4.62ZM81.27 10.93L81.27 10.93Q81.52 10.93 81.70 11.13L81.70 11.13L81.70 11.13Q81.87 11.33 81.87 11.63L81.87 11.63L81.87 11.63Q81.87 11.94 81.64 12.14L81.64 12.14L81.64 12.14Q81.41 12.33 81.05 12.33L81.05 12.33L80.79 12.33L80.79 12.33Q80.11 12.33 79.54 11.98L79.54 11.98L79.54 11.98Q78.97 11.62 78.65 11.00L78.65 11.00L78.65 11.00Q78.33 10.39 78.33 9.62L78.33 9.62L78.33 6.16L77.69 6.16L77.69 6.16Q77.39 6.16 77.21 5.99L77.21 5.99L77.21 5.99Q77.03 5.82 77.03 5.57L77.03 5.57L77.03 5.57Q77.03 5.29 77.21 5.12L77.21 5.12L77.21 5.12Q77.39 4.96 77.69 4.96L77.69 4.96L78.33 4.96L78.33 2.94L78.33 2.94Q78.33 2.63 78.53 2.44L78.53 2.44L78.53 2.44Q78.72 2.24 79.03 2.24L79.03 2.24L79.03 2.24Q79.34 2.24 79.53 2.44L79.53 2.44L79.53 2.44Q79.73 2.63 79.73 2.94L79.73 2.94L79.73 4.96L80.92 4.96L80.92 4.96Q81.21 4.96 81.40 5.12L81.40 5.12L81.40 5.12Q81.58 5.29 81.58 5.57L81.58 5.57L81.58 5.57Q81.58 5.82 81.40 5.99L81.40 5.99L81.40 5.99Q81.21 6.16 80.92 6.16L80.92 6.16L79.73 6.16L79.73 9.62L79.73 9.62Q79.73 10.18 80.04 10.56L80.04 10.56L80.04 10.56Q80.35 10.93 80.79 10.93L80.79 10.93L81.27 10.93Z"></path></g><!----><!----></svg>