<svg data-v-423bf9ae="" xmlns="http://www.w3.org/2000/svg" viewBox="0 0 45.67049882160931 60" class="font"><!----><!----><!----><g data-v-423bf9ae="" id="27c47bf7-a01b-4361-b21e-c30289d469c0" fill="white" transform="matrix(7.662835323707272,0,0,7.662835323707272,-6.973180153549478,-35.17241625874658)"><path d="M3.88 4.59L3.88 4.59Q5.64 4.59 6.55 5.85L6.55 5.85L6.55 5.85Q6.64 5.95 6.64 6.09L6.64 6.09L6.64 6.09Q6.64 6.29 6.41 6.41L6.41 6.41L6.41 6.41Q6.27 6.47 6.20 6.47L6.20 6.47L6.20 6.47Q5.99 6.47 5.85 6.29L5.85 6.29L5.85 6.29Q5.14 5.38 3.85 5.38L3.85 5.38L3.85 5.38Q3.00 5.38 2.49 5.75L2.49 5.75L2.49 5.75Q1.99 6.12 1.99 6.66L1.99 6.66L1.99 6.66Q1.99 7.22 2.47 7.56L2.47 7.56L2.47 7.56Q2.95 7.90 4.09 8.06L4.09 8.06L4.09 8.06Q5.57 8.27 6.22 8.86L6.22 8.86L6.22 8.86Q6.87 9.44 6.87 10.26L6.87 10.26L6.87 10.26Q6.87 10.91 6.46 11.40L6.46 11.40L6.46 11.40Q6.05 11.89 5.36 12.15L5.36 12.15L5.36 12.15Q4.68 12.42 3.86 12.42L3.86 12.42L3.86 12.42Q3.05 12.42 2.28 12.13L2.28 12.13L2.28 12.13Q1.51 11.84 1.01 11.26L1.01 11.26L1.01 11.26Q0.91 11.14 0.91 11.00L0.91 11.00L0.91 11.00Q0.91 10.81 1.09 10.68L1.09 10.68L1.09 10.68Q1.18 10.61 1.33 10.61L1.33 10.61L1.33 10.61Q1.53 10.61 1.65 10.77L1.65 10.77L1.65 10.77Q2.35 11.62 3.91 11.62L3.91 11.62L3.91 11.62Q5.01 11.62 5.54 11.23L5.54 11.23L5.54 11.23Q6.06 10.84 6.06 10.22L6.06 10.22L6.06 10.22Q6.06 9.11 3.92 8.81L3.92 8.81L3.92 8.81Q2.56 8.61 1.87 8.06L1.87 8.06L1.87 8.06Q1.18 7.52 1.18 6.75L1.18 6.75L1.18 6.75Q1.18 5.73 1.93 5.16L1.93 5.16L1.93 5.16Q2.67 4.59 3.88 4.59L3.88 4.59Z"></path></g><!----><!----></svg>