<svg data-v-423bf9ae="" xmlns="http://www.w3.org/2000/svg" viewBox="0 0 48.64864725540649 60" class="font"><!----><!----><!----><g data-v-423bf9ae="" id="4f869db6-bbf2-4b07-bc95-14080af087ec" fill="white" transform="matrix(7.722007267071506,0,0,7.722007267071506,-5.868725184441406,-35.675673643831075)"><path d="M3.95 4.62L3.95 4.62Q4.86 4.62 5.58 4.91L5.58 4.91L5.58 4.91Q6.30 5.21 6.72 5.73L6.72 5.73L6.72 5.73Q6.90 5.95 6.90 6.17L6.90 6.17L6.90 6.17Q6.90 6.41 6.66 6.61L6.66 6.61L6.66 6.61Q6.51 6.72 6.27 6.72L6.27 6.72L6.27 6.72Q5.91 6.72 5.61 6.45L5.61 6.45L5.61 6.45Q5.26 6.13 4.87 6.00L4.87 6.00L4.87 6.00Q4.48 5.87 3.92 5.87L3.92 5.87L3.92 5.87Q3.28 5.87 2.86 6.08L2.86 6.08L2.86 6.08Q2.45 6.30 2.45 6.69L2.45 6.69L2.45 6.69Q2.45 6.97 2.59 7.16L2.59 7.16L2.59 7.16Q2.73 7.35 3.12 7.51L3.12 7.51L3.12 7.51Q3.51 7.67 4.26 7.83L4.26 7.83L4.26 7.83Q5.78 8.13 6.42 8.68L6.42 8.68L6.42 8.68Q7.06 9.23 7.06 10.09L7.06 10.09L7.06 10.09Q7.06 10.74 6.71 11.26L6.71 11.26L6.71 11.26Q6.36 11.79 5.68 12.09L5.68 12.09L5.68 12.09Q5.00 12.39 4.05 12.39L4.05 12.39L4.05 12.39Q3.09 12.39 2.25 12.10L2.25 12.10L2.25 12.10Q1.41 11.80 0.94 11.33L0.94 11.33L0.94 11.33Q0.76 11.14 0.76 10.89L0.76 10.89L0.76 10.89Q0.76 10.56 1.04 10.35L1.04 10.35L1.04 10.35Q1.30 10.15 1.53 10.15L1.53 10.15L1.53 10.15Q1.81 10.15 2.06 10.40L2.06 10.40L2.06 10.40Q2.32 10.70 2.86 10.91L2.86 10.91L2.86 10.91Q3.39 11.13 3.99 11.13L3.99 11.13L3.99 11.13Q4.79 11.13 5.23 10.86L5.23 10.86L5.23 10.86Q5.67 10.60 5.67 10.15L5.67 10.15L5.67 10.15Q5.67 9.72 5.24 9.43L5.24 9.43L5.24 9.43Q4.80 9.14 3.77 8.95L3.77 8.95L3.77 8.95Q1.08 8.43 1.08 6.73L1.08 6.73L1.08 6.73Q1.08 6.05 1.48 5.57L1.48 5.57L1.48 5.57Q1.89 5.10 2.55 4.86L2.55 4.86L2.55 4.86Q3.21 4.62 3.95 4.62L3.95 4.62Z"></path></g><!----><!----></svg>